<?xml version="1.0" encoding="UTF-8"?>
<!DOCTYPE svg PUBLIC "-//W3C//DTD SVG 1.1//EN" "http://www.w3.org/Graphics/SVG/1.1/DTD/svg11.dtd">
<!-- Creator: CorelDRAW 2018 (64-Bit) -->
<svg xmlns="http://www.w3.org/2000/svg" xml:space="preserve" width="21px" height="24px" version="1.1" style="shape-rendering:geometricPrecision; text-rendering:geometricPrecision; image-rendering:optimizeQuality; fill-rule:evenodd; clip-rule:evenodd"
viewBox="0 0 3.483 4.004"
 xmlns:xlink="http://www.w3.org/1999/xlink">
 <defs>
  <style type="text/css">
   <![CDATA[
    .str0 {stroke:#2B2A29;stroke-width:0.009;stroke-miterlimit:22.9256}
    .fil0 {fill:black}
   ]]>
  </style>
 </defs>
 <g id="Слой_x0020_1">
  <metadata id="CorelCorpID_0Corel-Layer"/>
  <path class="fil0 str0" d="M0.004 1.996l2.905 0 0 0.554 0.37 0c0.11,0 0.2,0.09 0.2,0.201l0 0.354 -0.57 0 -0.283 0 -0.119 0.894 -0.259 0 0 -0.894 -1.682 0 0 0.894 -0.259 0 -0.119 -0.894 -0.184 0 0 -1.109zm1.878 -1.486l0 -0.506 0.989 0 0 1.327c0.003,0.022 0.004,0.043 0.004,0.062 0,0.109 -0.05,0.212 -0.14,0.304l-2.337 0c-0.197,-0.172 -0.312,-0.38 -0.297,-0.576 0.032,-0.453 1.354,-0.151 1.781,-0.611z"/>
 </g>
</svg>
